<svg width="100" height="100" viewBox="0 0 100 100" fill="none" xmlns="http://www.w3.org/2000/svg">
<rect width="100" height="100" rx="20" fill="#282C3C"/>
<path fill-rule="evenodd" clip-rule="evenodd" d="M16 26.8976C16 20.3229 21.3251 15 27.8955 15H73.1021C79.6725 15 85 20.3253 85 26.8976V65.3454C85 72.1419 76.3983 75.0916 72.2277 69.7269L59.1852 52.9475V73.2927C59.1852 79.207 54.3906 84 48.4761 84H27.8955C21.3251 84 16 78.6747 16 72.1024V26.8976ZM27.8955 24.5171C27.5835 24.5167 27.2746 24.5781 26.9863 24.6975C26.698 24.817 26.436 24.9922 26.2152 25.2133C25.9945 25.4343 25.8192 25.6968 25.6996 25.9858C25.5799 26.2748 25.5182 26.5846 25.5178 26.8976V72.1024C25.5178 73.4184 26.5814 74.4829 27.8955 74.4829H48.8347C49.4905 74.4829 49.6673 73.9506 49.6673 73.2927V46.013C49.6673 39.2116 58.269 36.2643 62.4397 41.6291L75.4822 58.4084V26.8976C75.4822 25.5816 75.605 24.5171 74.2934 24.5171H27.8955Z" fill="#00E0D9"/>
<path fill-rule="evenodd" clip-rule="evenodd" d="M16 26.8976C16 20.3229 21.3251 15 27.8955 15H73.1021C79.6725 15 85 20.3253 85 26.8976V65.3454C85 72.1419 76.3983 75.0916 72.2277 69.7269L59.1852 52.9475V73.2927C59.1852 79.207 54.3906 84 48.4761 84H27.8955C21.3251 84 16 78.6747 16 72.1024V26.8976ZM27.8955 24.5171C27.5835 24.5167 27.2746 24.5781 26.9863 24.6975C26.698 24.817 26.436 24.9922 26.2152 25.2133C25.9945 25.4343 25.8192 25.6968 25.6996 25.9858C25.5799 26.2748 25.5182 26.5846 25.5178 26.8976V72.1024C25.5178 73.4184 26.5814 74.4829 27.8955 74.4829H48.8347C49.4905 74.4829 49.6673 73.9506 49.6673 73.2927V46.013C49.6673 39.2116 58.269 36.2643 62.4397 41.6291L75.4822 58.4084V26.8976C75.4822 25.5816 75.605 24.5171 74.2934 24.5171H27.8955Z" fill="url(#paint0_linear_0_1)"/>
<path fill-rule="evenodd" clip-rule="evenodd" d="M16 26.8976C16 20.3229 21.3251 15 27.8955 15H73.1021C79.6725 15 85 20.3253 85 26.8976V65.3454C85 72.1419 76.3983 75.0916 72.2277 69.7269L59.1852 52.9475V73.2927C59.1852 79.207 54.3906 84 48.4761 84H27.8955C21.3251 84 16 78.6747 16 72.1024V26.8976ZM27.8955 24.5171C27.5835 24.5167 27.2746 24.5781 26.9863 24.6975C26.698 24.817 26.436 24.9922 26.2152 25.2133C25.9945 25.4343 25.8192 25.6968 25.6996 25.9858C25.5799 26.2748 25.5182 26.5846 25.5178 26.8976V72.1024C25.5178 73.4184 26.5814 74.4829 27.8955 74.4829H48.8347C49.4905 74.4829 49.6673 73.9506 49.6673 73.2927V46.013C49.6673 39.2116 58.269 36.2643 62.4397 41.6291L75.4822 58.4084V26.8976C75.4822 25.5816 75.605 24.5171 74.2934 24.5171H27.8955Z" fill="url(#paint1_linear_0_1)" fill-opacity="0.4"/>
<path d="M73.6001 15C79.8968 15 85 20.3253 85 26.8976V65.3454C85 72.1418 76.7567 75.0916 72.7598 69.7268L60.2606 52.9475V73.2927C60.2606 79.207 55.6682 84 50 84C50.1497 84.0006 50.298 83.9703 50.4365 83.9108C50.575 83.8513 50.7009 83.7637 50.807 83.6531C50.913 83.5425 50.9972 83.4111 51.0546 83.2664C51.1121 83.1216 51.1416 82.9665 51.1416 82.8097V46.0106C51.1416 39.2141 59.3826 36.2643 63.3819 41.6315L75.881 58.4084V17.378C75.8804 17.0651 75.8209 16.7554 75.706 16.4665C75.591 16.1776 75.4228 15.9153 75.211 15.6945C74.9992 15.4737 74.7479 15.2987 74.4715 15.1795C74.1951 15.0604 73.899 14.9994 73.6001 15Z" fill="#63F655"/>
<defs>
<linearGradient id="paint0_linear_0_1" x1="85" y1="84" x2="24.3257" y2="15.0002" gradientUnits="userSpaceOnUse">
<stop stop-color="#62F755"/>
<stop offset="1" stop-color="#8FF986" stop-opacity="0"/>
</linearGradient>
<linearGradient id="paint1_linear_0_1" x1="85" y1="84" x2="44.017" y2="68.0584" gradientUnits="userSpaceOnUse">
<stop stop-opacity="0.9"/>
<stop offset="1" stop-color="#1A1A1A" stop-opacity="0"/>
</linearGradient>
</defs>
</svg>
