<svg width="270" height="270" viewBox="0 0 270 270" fill="none" xmlns="http://www.w3.org/2000/svg">
<g filter="url(#filter0_i_101_42)">
<path d="M101.25 135C138.476 135 168.75 104.726 168.75 67.5C168.75 30.2738 138.476 0 101.25 0C64.0238 0 33.75 30.2738 33.75 67.5C33.75 104.726 64.0238 135 101.25 135ZM101.25 22.5C126.068 22.5 146.25 42.6825 146.25 67.5C146.25 92.3175 126.068 112.5 101.25 112.5C76.4325 112.5 56.25 92.3175 56.25 67.5C56.25 42.6825 76.4325 22.5 101.25 22.5ZM120.938 182.475C114.548 180.833 107.921 180 101.25 180C57.825 180 22.5 215.325 22.5 258.75C22.5 264.96 17.46 270 11.25 270C5.04 270 0 264.96 0 258.75C0 202.928 45.4275 157.5 101.25 157.5C109.823 157.5 118.339 158.569 126.563 160.695C132.581 162.248 136.193 168.379 134.651 174.398C133.11 180.416 127.001 184.028 120.949 182.486L120.938 182.475ZM260.111 133.639C247.354 120.881 225.124 120.881 212.378 133.639L136.924 209.093C128.43 217.586 123.739 228.893 123.739 240.919V258.761C123.739 264.971 128.779 270.011 134.989 270.011H152.831C164.858 270.011 176.153 265.32 184.646 256.826L260.1 181.373C266.479 174.994 269.989 166.523 269.989 157.5C269.989 148.478 266.479 140.006 260.111 133.639ZM244.193 165.454L168.728 240.908C164.486 245.16 158.839 247.5 152.82 247.5H146.228V240.908C146.228 234.9 148.568 229.253 152.82 225L228.285 149.546C232.526 145.294 239.94 145.294 244.193 149.546C246.319 151.661 247.489 154.485 247.489 157.5C247.489 160.515 246.319 163.328 244.193 165.454Z" fill="white"/>
</g>
<defs>
<filter id="filter0_i_101_42" x="0" y="0" width="274.989" height="275.011" filterUnits="userSpaceOnUse" color-interpolation-filters="sRGB">
<feFlood flood-opacity="0" result="BackgroundImageFix"/>
<feBlend mode="normal" in="SourceGraphic" in2="BackgroundImageFix" result="shape"/>
<feColorMatrix in="SourceAlpha" type="matrix" values="0 0 0 0 0 0 0 0 0 0 0 0 0 0 0 0 0 0 127 0" result="hardAlpha"/>
<feOffset dx="5" dy="5"/>
<feGaussianBlur stdDeviation="2.5"/>
<feComposite in2="hardAlpha" operator="arithmetic" k2="-1" k3="1"/>
<feColorMatrix type="matrix" values="0 0 0 0 0 0 0 0 0 0 0 0 0 0 0 0 0 0 0.25 0"/>
<feBlend mode="normal" in2="shape" result="effect1_innerShadow_101_42"/>
</filter>
</defs>
</svg>
