<svg width="224" height="215" viewBox="0 0 224 215" fill="none" xmlns="http://www.w3.org/2000/svg">
<g filter="url(#filter0_di_101_33)">
<path d="M219.992 103.5C219.97 97.4321 218.578 91.4475 215.92 85.9931C213.261 80.5386 209.405 75.7552 204.639 72.0001C211.233 66.8019 216.04 59.675 218.389 51.6137C220.738 43.5524 220.513 34.9588 217.745 27.0316C214.977 19.1045 209.803 12.2392 202.946 7.3934C196.089 2.54764 187.891 -0.0368723 179.495 0.000397484H44.505C36.109 -0.0368723 27.9107 2.54764 21.0538 7.3934C14.1969 12.2392 9.02344 19.1045 6.25508 27.0316C3.48671 34.9588 3.26153 43.5524 5.61094 51.6137C7.96035 59.675 12.7672 66.8019 19.3609 72.0001C14.5781 75.7403 10.7099 80.5205 8.04949 85.9783C5.38912 91.4362 4.00649 97.4282 4.00649 103.5C4.00649 109.572 5.38912 115.564 8.04949 121.022C10.7099 126.479 14.5781 131.26 19.3609 135C12.7672 140.198 7.96035 147.325 5.61094 155.386C3.26153 163.448 3.48671 172.041 6.25508 179.968C9.02344 187.896 14.1969 194.761 21.0538 199.607C27.9107 204.452 36.109 207.037 44.505 207H179.495C187.891 207.037 196.089 204.452 202.946 199.607C209.803 194.761 214.977 187.896 217.745 179.968C220.513 172.041 220.738 163.448 218.389 155.386C216.04 147.325 211.233 140.198 204.639 135C209.405 131.245 213.261 126.461 215.92 121.007C218.578 115.552 219.97 109.568 219.992 103.5ZM22.0067 40.5002C22.0067 34.5329 24.377 28.81 28.5963 24.5904C32.8155 20.3708 38.5381 18.0003 44.505 18.0003H49.0047V27.0003C49.0047 29.3872 49.9528 31.6764 51.6405 33.3642C53.3282 35.0521 55.6172 36.0003 58.004 36.0003C60.3908 36.0003 62.6798 35.0521 64.3675 33.3642C66.0552 31.6764 67.0033 29.3872 67.0033 27.0003V18.0003H85.002V27.0003C85.002 29.3872 85.9501 31.6764 87.6378 33.3642C89.3255 35.0521 91.6146 36.0003 94.0013 36.0003C96.3881 36.0003 98.6771 35.0521 100.365 33.3642C102.053 31.6764 103.001 29.3872 103.001 27.0003V18.0003H179.495C185.462 18.0003 191.184 20.3708 195.404 24.5904C199.623 28.81 201.993 34.5329 201.993 40.5002C201.993 46.4676 199.623 52.1905 195.404 56.4101C191.184 60.6296 185.462 63.0002 179.495 63.0002H44.505C38.5381 63.0002 32.8155 60.6296 28.5963 56.4101C24.377 52.1905 22.0067 46.4676 22.0067 40.5002ZM201.993 166.5C201.993 172.467 199.623 178.19 195.404 182.41C191.184 186.629 185.462 189 179.495 189H44.505C38.5381 189 32.8155 186.629 28.5963 182.41C24.377 178.19 22.0067 172.467 22.0067 166.5C22.0067 160.532 24.377 154.809 28.5963 150.59C32.8155 146.37 38.5381 144 44.505 144H49.0047V153C49.0047 155.387 49.9528 157.676 51.6405 159.364C53.3282 161.052 55.6172 162 58.004 162C60.3908 162 62.6798 161.052 64.3675 159.364C66.0552 157.676 67.0033 155.387 67.0033 153V144H85.002V153C85.002 155.387 85.9501 157.676 87.6378 159.364C89.3255 161.052 91.6146 162 94.0013 162C96.3881 162 98.6771 161.052 100.365 159.364C102.053 157.676 103.001 155.387 103.001 153V144H179.495C185.462 144 191.184 146.37 195.404 150.59C199.623 154.809 201.993 160.532 201.993 166.5ZM44.505 126C38.5381 126 32.8155 123.629 28.5963 119.41C24.377 115.19 22.0067 109.467 22.0067 103.5C22.0067 97.5327 24.377 91.8097 28.5963 87.5902C32.8155 83.3706 38.5381 81.0001 44.505 81.0001H49.0047V90.0001C49.0047 92.387 49.9528 94.6762 51.6405 96.364C53.3282 98.0518 55.6172 99 58.004 99C60.3908 99 62.6798 98.0518 64.3675 96.364C66.0552 94.6762 67.0033 92.387 67.0033 90.0001V81.0001H85.002V90.0001C85.002 92.387 85.9501 94.6762 87.6378 96.364C89.3255 98.0518 91.6146 99 94.0013 99C96.3881 99 98.6771 98.0518 100.365 96.364C102.053 94.6762 103.001 92.387 103.001 90.0001V81.0001H179.495C185.462 81.0001 191.184 83.3706 195.404 87.5902C199.623 91.8097 201.993 97.5327 201.993 103.5C201.993 109.467 199.623 115.19 195.404 119.41C191.184 123.629 185.462 126 179.495 126H44.505Z" fill="white"/>
</g>
<defs>
<filter id="filter0_di_101_33" x="0" y="0" width="224" height="217" filterUnits="userSpaceOnUse" color-interpolation-filters="sRGB">
<feFlood flood-opacity="0" result="BackgroundImageFix"/>
<feColorMatrix in="SourceAlpha" type="matrix" values="0 0 0 0 0 0 0 0 0 0 0 0 0 0 0 0 0 0 127 0" result="hardAlpha"/>
<feOffset dy="4"/>
<feGaussianBlur stdDeviation="2"/>
<feComposite in2="hardAlpha" operator="out"/>
<feColorMatrix type="matrix" values="0 0 0 0 0 0 0 0 0 0 0 0 0 0 0 0 0 0 0.25 0"/>
<feBlend mode="normal" in2="BackgroundImageFix" result="effect1_dropShadow_101_33"/>
<feBlend mode="normal" in="SourceGraphic" in2="effect1_dropShadow_101_33" result="shape"/>
<feColorMatrix in="SourceAlpha" type="matrix" values="0 0 0 0 0 0 0 0 0 0 0 0 0 0 0 0 0 0 127 0" result="hardAlpha"/>
<feOffset dy="10"/>
<feGaussianBlur stdDeviation="5"/>
<feComposite in2="hardAlpha" operator="arithmetic" k2="-1" k3="1"/>
<feColorMatrix type="matrix" values="0 0 0 0 0 0 0 0 0 0 0 0 0 0 0 0 0 0 0.25 0"/>
<feBlend mode="normal" in2="shape" result="effect2_innerShadow_101_33"/>
</filter>
</defs>
</svg>
