<svg width="362" height="362" viewBox="0 0 362 362" fill="none" xmlns="http://www.w3.org/2000/svg">
<g clip-path="url(#clip0_84_203)">
<path d="M181 181C198.899 181 216.396 175.692 231.279 165.748C246.162 155.804 257.761 141.67 264.611 125.133C271.461 108.596 273.253 90.3996 269.761 72.8443C266.269 55.2891 257.65 39.1635 244.993 26.5068C232.337 13.8502 216.211 5.2309 198.656 1.73894C181.1 -1.75302 162.904 0.0391819 146.367 6.88891C129.83 13.7386 115.696 25.3383 105.752 40.2209C95.8077 55.1035 90.5 72.6008 90.5 90.5C90.524 114.495 100.066 137.5 117.033 154.467C134 171.434 157.005 180.976 181 181ZM181 30.1667C192.933 30.1667 204.598 33.7052 214.519 40.3347C224.441 46.9642 232.174 56.387 236.741 67.4114C241.307 78.4359 242.502 90.5669 240.174 102.27C237.846 113.974 232.1 124.724 223.662 133.162C215.224 141.6 204.474 147.346 192.77 149.674C181.067 152.002 168.936 150.807 157.911 146.241C146.887 141.674 137.464 133.941 130.835 124.019C124.205 114.098 120.667 102.433 120.667 90.5C120.667 74.4986 127.023 59.1526 138.338 47.8379C149.653 36.5232 164.999 30.1667 181 30.1667Z" fill="white"/>
<path d="M181 211C145.009 211.04 110.504 225.355 85.0543 250.804C59.6049 276.254 45.2899 310.759 45.25 346.75C45.25 350.75 46.8391 354.587 49.6678 357.416C52.4965 360.244 56.333 361.833 60.3333 361.833C64.3337 361.833 68.1702 360.244 70.9989 357.416C73.8275 354.587 75.4167 350.75 75.4167 346.75C75.4167 318.748 86.5406 291.892 106.341 272.091C126.142 252.291 152.998 241.167 181 241.167C209.002 241.167 235.858 252.291 255.659 272.091C275.459 291.892 286.583 318.748 286.583 346.75C286.583 350.75 288.172 354.587 291.001 357.416C293.83 360.244 297.666 361.833 301.667 361.833C305.667 361.833 309.504 360.244 312.332 357.416C315.161 354.587 316.75 350.75 316.75 346.75C316.71 310.759 302.395 276.254 276.946 250.804C251.496 225.355 216.991 211.04 181 211Z" fill="white"/>
</g>
<defs>
<clipPath id="clip0_84_203">
<rect width="362" height="362" fill="white"/>
</clipPath>
</defs>
</svg>
