<svg width="75" height="75" viewBox="0 0 75 75" fill="none" xmlns="http://www.w3.org/2000/svg">
<path fill-rule="evenodd" clip-rule="evenodd" d="M61.4183 8.38089C55.8238 3.7774 48.8786 0.755742 41.2668 0V11.3814C45.7694 12.0255 49.9051 13.8071 53.3734 16.4258L61.4183 8.38089ZM66.7309 13.7224L58.6797 21.7736C61.2665 25.2557 63.0149 29.3978 63.6264 33.9011H75C74.2821 26.2884 71.2986 19.335 66.7309 13.7224ZM16.4437 53.3554C13.8611 49.935 12.0927 45.8653 11.4266 41.4347H0.0369235C0.823089 48.9737 3.83291 55.8513 8.39889 61.4003L16.4437 53.3554ZM13.7404 66.7129L21.7915 58.6618C25.2257 61.2129 29.3017 62.9487 33.7332 63.5825V74.964C26.1932 74.2154 19.3073 71.2434 13.7404 66.7129ZM0 33.9011C0.71691 26.2989 3.69323 19.3541 8.25033 13.7454L16.3024 21.7974C13.7253 25.2746 11.9834 29.408 11.3734 33.9011H0ZM41.2668 63.5825C45.6879 62.9501 49.7553 61.2209 53.1844 58.6795L61.2366 66.7317C55.6737 71.2516 48.7964 74.2164 41.2668 74.964V63.5825ZM58.5381 53.3791L66.5822 61.4232C71.1588 55.8703 74.1758 48.984 74.9631 41.4347H63.5732C62.9056 45.8755 61.1305 49.9537 58.5381 53.3791ZM13.5588 8.39976L21.6027 16.4437C25.0759 13.8152 29.2202 12.0269 33.7332 11.3814V4.09008e-07C26.111 0.756775 19.1573 3.78566 13.5588 8.39976Z" fill="#D8D8D8"/>
<path d="M22.5156 49V31.48L18.7956 31.72V28.42L23.1156 26.56H27.7056V49H22.5156ZM31.4849 49.06C31.0449 49.06 30.8249 48.84 30.8249 48.4V45.1C30.8249 44.64 31.0449 44.41 31.4849 44.41H34.4849C34.9649 44.41 35.2049 44.64 35.2049 45.1V48.4C35.2049 48.64 35.1349 48.81 34.9949 48.91C34.8749 49.01 34.7049 49.06 34.4849 49.06H31.4849ZM44.0577 49.15C42.7577 49.15 41.6577 48.92 40.7577 48.46C39.8577 48 39.1877 47.33 38.7477 46.45C38.3077 45.57 38.0877 44.5 38.0877 43.24V32.74C38.0877 31.4 38.3177 30.28 38.7777 29.38C39.2577 28.46 39.9477 27.76 40.8477 27.28C41.7477 26.8 42.8277 26.56 44.0877 26.56H48.8277C50.0877 26.56 51.1377 26.81 51.9777 27.31C52.8377 27.79 53.4877 28.49 53.9277 29.41C54.3677 30.31 54.5877 31.42 54.5877 32.74V43.24C54.5877 45.12 54.0877 46.58 53.0877 47.62C52.0877 48.64 50.6577 49.15 48.7977 49.15H44.0577ZM45.3177 44.5H47.3877C48.0677 44.5 48.5677 44.34 48.8877 44.02C49.2277 43.68 49.3977 43.16 49.3977 42.46V33.28C49.3977 32.48 49.2277 31.94 48.8877 31.66C48.5677 31.36 48.1377 31.21 47.5977 31.21H45.1377C44.5177 31.21 44.0477 31.38 43.7277 31.72C43.4277 32.06 43.2777 32.58 43.2777 33.28V42.43C43.2777 43.17 43.4477 43.7 43.7877 44.02C44.1277 44.34 44.6377 44.5 45.3177 44.5Z" fill="white"/>
</svg>
