<svg width="83" height="83" viewBox="0 0 83 83" fill="none" xmlns="http://www.w3.org/2000/svg">
<g clip-path="url(#clip0_132_39)" filter="url(#filter0_di_132_39)">
<path d="M39.8625 46.875C39.0337 46.875 38.2388 47.2042 37.6528 47.7903C37.0667 48.3763 36.7375 49.1712 36.7375 50V59.375C36.7375 61.8614 35.7498 64.246 33.9916 66.0041C32.2335 67.7623 29.8489 68.75 27.3625 68.75H19.625C17.1386 68.75 14.754 67.7623 12.9959 66.0041C11.2377 64.246 10.25 61.8614 10.25 59.375V15.625C10.25 13.1386 11.2377 10.754 12.9959 8.99587C14.754 7.23772 17.1386 6.25 19.625 6.25H27.3625C29.8489 6.25 32.2335 7.23772 33.9916 8.99587C35.7498 10.754 36.7375 13.1386 36.7375 15.625V25C36.7375 25.8288 37.0667 26.6237 37.6528 27.2097C38.2388 27.7958 39.0337 28.125 39.8625 28.125C40.6913 28.125 41.4862 27.7958 42.0722 27.2097C42.6583 26.6237 42.9875 25.8288 42.9875 25V15.625C42.9825 11.4825 41.3347 7.51112 38.4056 4.58194C35.4764 1.65276 31.505 0.00496206 27.3625 0H19.625C15.4825 0.00496206 11.5111 1.65276 8.58194 4.58194C5.65276 7.51112 4.00496 11.4825 4 15.625L4 59.375C4.00496 63.5175 5.65276 67.4889 8.58194 70.4181C11.5111 73.3472 15.4825 74.995 19.625 75H27.3625C31.505 74.995 35.4764 73.3472 38.4056 70.4181C41.3347 67.4889 42.9825 63.5175 42.9875 59.375V50C42.9875 49.1712 42.6583 48.3763 42.0722 47.7903C41.4862 47.2042 40.6913 46.875 39.8625 46.875Z" fill="white"/>
<path d="M75.4594 30.8718L61.1281 16.5406C60.8399 16.2421 60.495 16.004 60.1138 15.8403C59.7325 15.6765 59.3224 15.5903 58.9075 15.5867C58.4926 15.5831 58.0811 15.6621 57.697 15.8193C57.313 15.9764 56.9641 16.2084 56.6706 16.5018C56.3772 16.7953 56.1452 17.1442 55.9881 17.5282C55.8309 17.9123 55.7519 18.3238 55.7555 18.7387C55.7591 19.1536 55.8453 19.5637 56.0091 19.945C56.1728 20.3262 56.4109 20.6711 56.7094 20.9593L70.0312 34.2812L22.75 34.3749C21.9212 34.3749 21.1263 34.7042 20.5403 35.2902C19.9542 35.8763 19.625 36.6711 19.625 37.4999C19.625 38.3288 19.9542 39.1236 20.5403 39.7097C21.1263 40.2957 21.9212 40.6249 22.75 40.6249L70.2125 40.5312L56.7031 54.0406C56.4047 54.3288 56.1666 54.6737 56.0028 55.0549C55.839 55.4362 55.7528 55.8463 55.7492 56.2612C55.7456 56.6761 55.8247 57.0876 55.9818 57.4717C56.1389 57.8557 56.371 58.2046 56.6644 58.4981C56.9578 58.7915 57.3067 59.0235 57.6908 59.1806C58.0748 59.3378 58.4863 59.4168 58.9013 59.4132C59.3162 59.4096 59.7263 59.3234 60.1075 59.1596C60.4888 58.9959 60.8336 58.7578 61.1219 58.4593L75.4531 44.1281C77.2115 42.3708 78.2 39.9872 78.2011 37.5012C78.2023 35.0153 77.2161 32.6307 75.4594 30.8718Z" fill="white"/>
</g>
<defs>
<filter id="filter0_di_132_39" x="0" y="0" width="83" height="83" filterUnits="userSpaceOnUse" color-interpolation-filters="sRGB">
<feFlood flood-opacity="0" result="BackgroundImageFix"/>
<feColorMatrix in="SourceAlpha" type="matrix" values="0 0 0 0 0 0 0 0 0 0 0 0 0 0 0 0 0 0 127 0" result="hardAlpha"/>
<feOffset dy="4"/>
<feGaussianBlur stdDeviation="2"/>
<feComposite in2="hardAlpha" operator="out"/>
<feColorMatrix type="matrix" values="0 0 0 0 0 0 0 0 0 0 0 0 0 0 0 0 0 0 0.25 0"/>
<feBlend mode="normal" in2="BackgroundImageFix" result="effect1_dropShadow_132_39"/>
<feBlend mode="normal" in="SourceGraphic" in2="effect1_dropShadow_132_39" result="shape"/>
<feColorMatrix in="SourceAlpha" type="matrix" values="0 0 0 0 0 0 0 0 0 0 0 0 0 0 0 0 0 0 127 0" result="hardAlpha"/>
<feOffset dy="4"/>
<feGaussianBlur stdDeviation="2"/>
<feComposite in2="hardAlpha" operator="arithmetic" k2="-1" k3="1"/>
<feColorMatrix type="matrix" values="0 0 0 0 0 0 0 0 0 0 0 0 0 0 0 0 0 0 0.25 0"/>
<feBlend mode="normal" in2="shape" result="effect2_innerShadow_132_39"/>
</filter>
<clipPath id="clip0_132_39">
<rect width="75" height="75" fill="white" transform="translate(4)"/>
</clipPath>
</defs>
</svg>
