<svg width="304" height="290" viewBox="0 0 304 290" fill="none" xmlns="http://www.w3.org/2000/svg">
<g clip-path="url(#clip0_0_1)" filter="url(#filter0_i_0_1)">
<path d="M145 145C159.339 145 173.356 140.748 185.279 132.782C197.201 124.815 206.494 113.492 211.981 100.245C217.469 86.9969 218.904 72.4196 216.107 58.356C213.31 44.2924 206.405 31.3741 196.265 21.2348C186.126 11.0955 173.208 4.19053 159.144 1.3931C145.08 -1.40433 130.503 0.0314132 117.255 5.51877C104.008 11.0061 92.6849 20.2986 84.7185 32.2212C76.7521 44.1438 72.5 58.1609 72.5 72.5C72.5192 91.7223 80.1637 110.152 93.756 123.744C107.348 137.336 125.778 144.981 145 145ZM145 24.1667C154.559 24.1667 163.904 27.0014 171.853 32.3123C179.801 37.6233 185.996 45.1719 189.654 54.0037C193.312 62.8354 194.27 72.5536 192.405 81.9294C190.54 91.3051 185.936 99.9173 179.177 106.677C172.417 113.436 163.805 118.04 154.429 119.905C145.054 121.77 135.335 120.812 126.504 117.154C117.672 113.496 110.123 107.301 104.812 99.3526C99.5014 91.4042 96.6667 82.0595 96.6667 72.5C96.6667 59.6812 101.759 47.3875 110.823 38.3232C119.887 29.2589 132.181 24.1667 145 24.1667Z" fill="white"/>
<path d="M145 169.033C116.168 169.065 88.5251 180.533 68.1375 200.921C47.7498 221.308 36.282 248.951 36.25 277.783C36.25 280.988 37.5231 284.061 39.7891 286.327C42.0552 288.593 45.1286 289.867 48.3333 289.867C51.538 289.867 54.6115 288.593 56.8775 286.327C59.1436 284.061 60.4167 280.988 60.4167 277.783C60.4167 255.35 69.3281 233.836 85.1906 217.974C101.053 202.111 122.567 193.2 145 193.2C167.433 193.2 188.947 202.111 204.809 217.974C220.672 233.836 229.583 255.35 229.583 277.783C229.583 280.988 230.856 284.061 233.122 286.327C235.389 288.593 238.462 289.867 241.667 289.867C244.871 289.867 247.945 288.593 250.211 286.327C252.477 284.061 253.75 280.988 253.75 277.783C253.718 248.951 242.25 221.308 221.863 200.921C201.475 180.533 173.832 169.065 145 169.033Z" fill="white"/>
</g>
<g clip-path="url(#clip1_0_1)" filter="url(#filter1_i_0_1)">
<path d="M254 95C244.111 95 234.444 97.9324 226.222 103.427C217.999 108.921 211.59 116.73 207.806 125.866C204.022 135.002 203.031 145.055 204.961 154.755C206.89 164.454 211.652 173.363 218.645 180.355C225.637 187.348 234.546 192.11 244.246 194.039C253.945 195.969 263.998 194.978 273.134 191.194C282.271 187.41 290.079 181.001 295.573 172.779C301.068 164.556 304 154.889 304 145C303.986 131.744 298.713 119.034 289.34 109.66C279.966 100.287 267.256 95.0143 254 95ZM254 182.5C246.583 182.5 239.333 180.301 233.166 176.18C226.999 172.06 222.193 166.203 219.355 159.351C216.516 152.498 215.774 144.958 217.221 137.684C218.668 130.41 222.239 123.728 227.484 118.483C232.728 113.239 239.41 109.667 246.684 108.221C253.958 106.774 261.498 107.516 268.351 110.355C275.203 113.193 281.06 117.999 285.18 124.166C289.301 130.333 291.5 137.583 291.5 145C291.488 154.942 287.533 164.473 280.503 171.503C273.473 178.533 263.942 182.488 254 182.5Z" fill="white"/>
<path d="M252.104 134.771H250.854C249.217 134.731 247.623 135.303 246.386 136.377C245.149 137.451 244.357 138.948 244.167 140.575C244.058 142.203 244.589 143.808 245.648 145.049C246.707 146.29 248.209 147.068 249.833 147.217V166.592C249.833 168.249 250.492 169.839 251.664 171.011C252.836 172.183 254.426 172.842 256.083 172.842C257.741 172.842 259.331 172.183 260.503 171.011C261.675 169.839 262.333 168.249 262.333 166.592V145C262.333 142.287 261.256 139.685 259.337 137.767C257.419 135.848 254.817 134.771 252.104 134.771Z" fill="white"/>
<path d="M253.292 130.275C254.706 130.275 256.088 129.856 257.264 129.07C258.44 128.284 259.356 127.168 259.897 125.861C260.439 124.555 260.58 123.117 260.304 121.73C260.028 120.343 259.347 119.069 258.347 118.069C257.348 117.069 256.074 116.388 254.687 116.112C253.3 115.836 251.862 115.978 250.555 116.519C249.249 117.06 248.132 117.977 247.347 119.153C246.561 120.328 246.142 121.711 246.142 123.125C246.141 124.064 246.326 124.994 246.685 125.862C247.044 126.73 247.571 127.518 248.235 128.182C248.899 128.846 249.687 129.373 250.555 129.732C251.423 130.091 252.353 130.276 253.292 130.275Z" fill="white"/>
</g>
<defs>
<filter id="filter0_i_0_1" x="0" y="0" width="295" height="295" filterUnits="userSpaceOnUse" color-interpolation-filters="sRGB">
<feFlood flood-opacity="0" result="BackgroundImageFix"/>
<feBlend mode="normal" in="SourceGraphic" in2="BackgroundImageFix" result="shape"/>
<feColorMatrix in="SourceAlpha" type="matrix" values="0 0 0 0 0 0 0 0 0 0 0 0 0 0 0 0 0 0 127 0" result="hardAlpha"/>
<feOffset dx="5" dy="5"/>
<feGaussianBlur stdDeviation="2.5"/>
<feComposite in2="hardAlpha" operator="arithmetic" k2="-1" k3="1"/>
<feColorMatrix type="matrix" values="0 0 0 0 0 0 0 0 0 0 0 0 0 0 0 0 0 0 0.25 0"/>
<feBlend mode="normal" in2="shape" result="effect1_innerShadow_0_1"/>
</filter>
<filter id="filter1_i_0_1" x="204" y="95" width="105" height="105" filterUnits="userSpaceOnUse" color-interpolation-filters="sRGB">
<feFlood flood-opacity="0" result="BackgroundImageFix"/>
<feBlend mode="normal" in="SourceGraphic" in2="BackgroundImageFix" result="shape"/>
<feColorMatrix in="SourceAlpha" type="matrix" values="0 0 0 0 0 0 0 0 0 0 0 0 0 0 0 0 0 0 127 0" result="hardAlpha"/>
<feOffset dx="5" dy="5"/>
<feGaussianBlur stdDeviation="2.5"/>
<feComposite in2="hardAlpha" operator="arithmetic" k2="-1" k3="1"/>
<feColorMatrix type="matrix" values="0 0 0 0 0 0 0 0 0 0 0 0 0 0 0 0 0 0 0.25 0"/>
<feBlend mode="normal" in2="shape" result="effect1_innerShadow_0_1"/>
</filter>
<clipPath id="clip0_0_1">
<rect width="290" height="290" fill="white"/>
</clipPath>
<clipPath id="clip1_0_1">
<rect width="100" height="100" fill="white" transform="translate(204 95)"/>
</clipPath>
</defs>
</svg>
