<svg width="320" height="320" viewBox="0 0 320 320" fill="none" xmlns="http://www.w3.org/2000/svg">
<g clip-path="url(#clip0_101_39)" filter="url(#filter0_i_101_39)">
<path d="M160 160C204.12 160 240 124.12 240 80C240 35.88 204.12 0 160 0C115.88 0 80 35.88 80 80C80 124.12 115.88 160 160 160ZM160 26.6667C189.413 26.6667 213.333 50.5867 213.333 80C213.333 109.413 189.413 133.333 160 133.333C130.587 133.333 106.667 109.413 106.667 80C106.667 50.5867 130.587 26.6667 160 26.6667ZM280 306.667C280 314.027 274.04 320 266.667 320C259.293 320 253.333 314.027 253.333 306.667C253.333 266.413 227.667 232.133 191.88 219.067L171.653 249.413L186.227 302.613C188.667 311.493 180.827 320.013 170.213 320.013H149.787C139.173 320.013 131.347 311.493 133.773 302.613L148.347 249.413L128.12 219.067C92.3333 232.133 66.6667 266.413 66.6667 306.68C66.6667 314.04 60.6933 320.013 53.3333 320.013C45.9733 320.013 40 314.04 40 306.68C40 240.52 93.84 186.68 160 186.68C226.16 186.68 280 240.507 280 306.667Z" fill="white"/>
</g>
<defs>
<filter id="filter0_i_101_39" x="0" y="0" width="325" height="325" filterUnits="userSpaceOnUse" color-interpolation-filters="sRGB">
<feFlood flood-opacity="0" result="BackgroundImageFix"/>
<feBlend mode="normal" in="SourceGraphic" in2="BackgroundImageFix" result="shape"/>
<feColorMatrix in="SourceAlpha" type="matrix" values="0 0 0 0 0 0 0 0 0 0 0 0 0 0 0 0 0 0 127 0" result="hardAlpha"/>
<feOffset dx="5" dy="5"/>
<feGaussianBlur stdDeviation="2.5"/>
<feComposite in2="hardAlpha" operator="arithmetic" k2="-1" k3="1"/>
<feColorMatrix type="matrix" values="0 0 0 0 0 0 0 0 0 0 0 0 0 0 0 0 0 0 0.25 0"/>
<feBlend mode="normal" in2="shape" result="effect1_innerShadow_101_39"/>
</filter>
<clipPath id="clip0_101_39">
<rect width="320" height="320" fill="white"/>
</clipPath>
</defs>
</svg>
