<svg width="285" height="300" viewBox="0 0 285 300" fill="none" xmlns="http://www.w3.org/2000/svg">
<path d="M272.5 137.5H247.5V112.5C247.5 109.185 246.183 106.005 243.839 103.661C241.495 101.317 238.315 100 235 100C231.685 100 228.505 101.317 226.161 103.661C223.817 106.005 222.5 109.185 222.5 112.5V137.5H197.5C194.185 137.5 191.005 138.817 188.661 141.161C186.317 143.505 185 146.685 185 150C185 153.315 186.317 156.495 188.661 158.839C191.005 161.183 194.185 162.5 197.5 162.5H222.5V187.5C222.5 190.815 223.817 193.995 226.161 196.339C228.505 198.683 231.685 200 235 200C238.315 200 241.495 198.683 243.839 196.339C246.183 193.995 247.5 190.815 247.5 187.5V162.5H272.5C275.815 162.5 278.995 161.183 281.339 158.839C283.683 156.495 285 153.315 285 150C285 146.685 283.683 143.505 281.339 141.161C278.995 138.817 275.815 137.5 272.5 137.5Z" fill="#FEFEFE"/>
<path d="M112.5 150C127.334 150 141.834 145.601 154.168 137.36C166.501 129.119 176.114 117.406 181.791 103.701C187.468 89.9968 188.953 74.9168 186.059 60.3683C183.165 45.8197 176.022 32.456 165.533 21.967C155.044 11.4781 141.68 4.33503 127.132 1.44114C112.583 -1.45275 97.5032 0.0324965 83.7988 5.70907C70.0943 11.3856 58.3809 20.9986 50.1398 33.3323C41.8987 45.666 37.5 60.1664 37.5 75C37.5199 94.8852 45.428 113.95 59.4889 128.011C73.5499 142.072 92.6149 149.98 112.5 150ZM112.5 25C122.389 25 132.056 27.9325 140.279 33.4266C148.501 38.9206 154.91 46.7296 158.694 55.8659C162.478 65.0022 163.469 75.0555 161.539 84.7545C159.61 94.4536 154.848 103.363 147.855 110.355C140.863 117.348 131.954 122.11 122.255 124.039C112.555 125.969 102.502 124.978 93.3658 121.194C84.2295 117.41 76.4206 111.001 70.9265 102.779C65.4325 94.5561 62.5 84.8891 62.5 75C62.5 61.7392 67.7678 49.0215 77.1447 39.6447C86.5215 30.2679 99.2392 25 112.5 25Z" fill="#FEFEFE"/>
<path d="M112.5 175C82.6733 175.033 54.0777 186.896 32.987 207.987C11.8964 229.078 0.0330857 257.673 0 287.5C0 290.815 1.31696 293.995 3.66117 296.339C6.00537 298.683 9.1848 300 12.5 300C15.8152 300 18.9946 298.683 21.3388 296.339C23.683 293.995 25 290.815 25 287.5C25 264.294 34.2187 242.038 50.6282 225.628C67.0376 209.219 89.2936 200 112.5 200C135.706 200 157.962 209.219 174.372 225.628C190.781 242.038 200 264.294 200 287.5C200 290.815 201.317 293.995 203.661 296.339C206.005 298.683 209.185 300 212.5 300C215.815 300 218.995 298.683 221.339 296.339C223.683 293.995 225 290.815 225 287.5C224.967 257.673 213.104 229.078 192.013 207.987C170.922 186.896 142.327 175.033 112.5 175Z" fill="#FEFEFE"/>
</svg>
