<svg width="429" height="114" viewBox="0 0 429 114" fill="none" xmlns="http://www.w3.org/2000/svg">
<g filter="url(#filter0_di_0_1)">
<path d="M355.074 64V40.835H350.236V35.751L355.976 33.291H363.028V64H355.074ZM367.822 64.082C367.166 64.082 366.838 63.7677 366.838 63.139V58.342C366.838 57.6587 367.166 57.317 367.822 57.317H372.455C373.138 57.317 373.48 57.6587 373.48 58.342V63.139C373.48 63.4943 373.384 63.7403 373.193 63.877C373.001 64.0137 372.755 64.082 372.455 64.082H367.822ZM385.363 64.246C383.504 64.246 381.946 63.918 380.689 63.262C379.459 62.606 378.543 61.663 377.942 60.433C377.341 59.1757 377.04 57.686 377.04 55.964V41.983C377.04 40.097 377.354 38.5117 377.983 37.227C378.639 35.9423 379.596 34.972 380.853 34.316C382.11 33.6327 383.627 33.291 385.404 33.291H392.046C393.768 33.291 395.217 33.6327 396.392 34.316C397.595 34.972 398.497 35.9423 399.098 37.227C399.727 38.5117 400.041 40.097 400.041 41.983V55.964C400.041 58.5333 399.344 60.556 397.95 62.032C396.583 63.508 394.602 64.246 392.005 64.246H385.363ZM387.331 57.112H389.791C390.529 57.112 391.089 56.9343 391.472 56.579C391.882 56.1963 392.087 55.5813 392.087 54.734V42.803C392.087 41.8463 391.896 41.2177 391.513 40.917C391.13 40.589 390.666 40.425 390.119 40.425H387.044C386.333 40.425 385.814 40.6163 385.486 40.999C385.158 41.3817 384.994 41.983 384.994 42.803V54.693C384.994 55.5677 385.185 56.1963 385.568 56.579C385.951 56.9343 386.538 57.112 387.331 57.112Z" fill="white"/>
</g>
<g filter="url(#filter1_di_0_1)">
<path d="M24.2049 35.88L19.5489 69H10.5729L15.2289 35.88H24.2049ZM33.7089 35.88L32.7489 42.744H4.76494L5.72494 35.88H33.7089ZM44.1441 35.736C46.0321 35.736 47.9361 35.752 49.8561 35.784C51.7761 35.784 53.6321 35.832 55.4241 35.928C57.2161 35.992 58.8481 36.12 60.3201 36.312L59.3121 42.696H47.4081C46.5441 42.696 45.9041 42.856 45.4881 43.176C45.1041 43.496 44.8481 44.072 44.7201 44.904L42.6081 60.024C42.5121 60.728 42.6241 61.272 42.9441 61.656C43.2641 62.008 43.8241 62.184 44.6241 62.184H56.4321L56.2881 68.664C54.7841 68.856 53.1361 68.968 51.3441 69C49.5841 69.064 47.7761 69.096 45.9201 69.096C44.0961 69.128 42.3521 69.144 40.6881 69.144C38.0321 69.144 36.0801 68.36 34.8321 66.792C33.6161 65.224 33.1681 63.192 33.4881 60.696L35.9841 42.696C36.3041 40.552 37.1521 38.856 38.5281 37.608C39.9361 36.36 41.8081 35.736 44.1441 35.736ZM36.0321 48.888H56.6241L55.8561 54.984H35.0721L36.0321 48.888ZM77.8517 35.304C79.4837 35.304 80.8917 35.352 82.0757 35.448C83.2597 35.544 84.3477 35.688 85.3397 35.88C86.3317 36.04 87.3237 36.264 88.3157 36.552L87.2597 43.128C86.1397 43.064 85.0997 43.032 84.1397 43.032C83.1797 43 82.1717 42.984 81.1157 42.984C80.0917 42.952 78.8597 42.936 77.4197 42.936C76.3957 42.936 75.5317 43.064 74.8277 43.32C74.1237 43.544 73.5157 43.992 73.0037 44.664C72.5237 45.336 72.1077 46.328 71.7557 47.64C71.4037 48.952 71.0997 50.664 70.8437 52.776C70.4917 55.208 70.3317 57.096 70.3637 58.44C70.4277 59.752 70.7637 60.664 71.3717 61.176C72.0117 61.688 73.0197 61.944 74.3957 61.944C76.7317 61.944 78.6677 61.912 80.2037 61.848C81.7397 61.752 83.2597 61.64 84.7637 61.512L85.0997 68.136C83.4037 68.648 81.7237 69.016 80.0597 69.24C78.3957 69.464 76.3797 69.576 74.0117 69.576C70.4597 69.576 67.6597 69.016 65.6117 67.896C63.5637 66.776 62.2037 64.936 61.5317 62.376C60.8597 59.816 60.8277 56.392 61.4357 52.104C61.9157 48.808 62.5397 46.072 63.3077 43.896C64.0757 41.72 65.0837 40.008 66.3317 38.76C67.5797 37.512 69.1477 36.632 71.0357 36.12C72.9237 35.576 75.1957 35.304 77.8517 35.304ZM102.319 35.88L97.6626 69H88.6386L93.2946 35.88H102.319ZM110.719 48.12L109.759 54.696H99.3426L100.207 48.12H110.719ZM120.943 35.88L116.287 69H107.263L111.919 35.88H120.943ZM155.708 35.88L151.484 66.024C151.356 67.048 151.02 67.8 150.476 68.28C149.964 68.76 149.196 69 148.172 69H144.62C143.66 69 142.972 68.76 142.556 68.28C142.14 67.768 141.74 67.064 141.356 66.168L135.116 52.056C134.764 51.32 134.46 50.504 134.204 49.608C133.948 48.712 133.724 47.8 133.532 46.872H133.052C133.084 47.832 133.068 48.792 133.004 49.752C132.972 50.68 132.892 51.64 132.764 52.632L130.412 69H122.06L126.284 38.856C126.412 37.832 126.732 37.08 127.244 36.6C127.788 36.12 128.572 35.88 129.596 35.88H133.148C134.076 35.88 134.748 36.136 135.164 36.648C135.58 37.16 135.98 37.848 136.364 38.712L142.46 52.2C142.812 53 143.148 53.848 143.468 54.744C143.82 55.64 144.124 56.632 144.38 57.72H144.908C144.844 56.696 144.812 55.768 144.812 54.936C144.844 54.072 144.924 53.192 145.052 52.296L147.404 35.88H155.708ZM174.555 35.208C178.043 35.208 180.859 35.736 183.003 36.792C185.147 37.848 186.603 39.64 187.371 42.168C188.139 44.696 188.219 48.232 187.611 52.776C187.163 56.136 186.523 58.92 185.691 61.128C184.859 63.304 183.787 65.016 182.475 66.264C181.195 67.512 179.611 68.392 177.723 68.904C175.835 69.416 173.611 69.672 171.051 69.672C167.435 69.672 164.571 69.144 162.459 68.088C160.347 67.032 158.939 65.24 158.235 62.712C157.563 60.152 157.531 56.616 158.139 52.104C158.619 48.808 159.259 46.072 160.059 43.896C160.891 41.688 161.947 39.96 163.227 38.712C164.507 37.432 166.075 36.536 167.931 36.024C169.787 35.48 171.995 35.208 174.555 35.208ZM174.411 42.072C173.003 42.072 171.867 42.36 171.003 42.936C170.171 43.512 169.499 44.568 168.987 46.104C168.507 47.64 168.043 49.864 167.595 52.776C167.179 55.496 167.003 57.576 167.067 59.016C167.163 60.456 167.547 61.448 168.219 61.992C168.891 62.536 169.915 62.808 171.291 62.808C172.731 62.808 173.867 62.52 174.699 61.944C175.531 61.368 176.203 60.312 176.715 58.776C177.227 57.208 177.707 54.984 178.155 52.104C178.571 49.384 178.731 47.304 178.635 45.864C178.539 44.424 178.155 43.432 177.483 42.888C176.811 42.344 175.787 42.072 174.411 42.072ZM205.965 35.208C207.757 35.24 209.645 35.368 211.629 35.592C213.645 35.816 215.549 36.216 217.341 36.792L216.573 42.6C215.581 42.568 214.461 42.552 213.213 42.552C211.965 42.52 210.685 42.504 209.373 42.504C208.061 42.472 206.749 42.456 205.437 42.456C204.765 42.456 204.173 42.488 203.661 42.552C203.181 42.584 202.765 42.68 202.413 42.84C202.093 42.968 201.837 43.176 201.645 43.464C201.453 43.752 201.309 44.136 201.213 44.616C201.181 45.032 201.213 45.4 201.309 45.72C201.405 46.04 201.629 46.328 201.981 46.584C202.365 46.84 202.909 47.144 203.613 47.496L209.373 50.088C211.165 50.888 212.509 51.752 213.405 52.68C214.333 53.608 214.925 54.68 215.181 55.896C215.469 57.112 215.517 58.536 215.325 60.168C215.005 62.664 214.365 64.6 213.405 65.976C212.477 67.352 211.085 68.312 209.229 68.856C207.373 69.4 204.909 69.672 201.837 69.672C200.525 69.672 198.765 69.56 196.557 69.336C194.349 69.144 192.013 68.744 189.549 68.136L190.413 61.848C192.269 61.88 193.933 61.928 195.405 61.992C196.909 62.024 198.173 62.056 199.197 62.088C200.221 62.088 200.957 62.088 201.405 62.088C202.589 62.088 203.517 62.024 204.189 61.896C204.893 61.768 205.405 61.544 205.725 61.224C206.077 60.872 206.301 60.408 206.397 59.832C206.493 59.32 206.493 58.92 206.397 58.632C206.301 58.344 206.093 58.088 205.773 57.864C205.453 57.64 205.005 57.4 204.429 57.144L198.237 54.312C196.477 53.448 195.133 52.52 194.205 51.528C193.309 50.536 192.733 49.448 192.477 48.264C192.221 47.048 192.173 45.736 192.333 44.328C192.557 42.504 192.989 41 193.629 39.816C194.301 38.632 195.181 37.72 196.269 37.08C197.389 36.408 198.749 35.928 200.349 35.64C201.981 35.352 203.853 35.208 205.965 35.208ZM251.171 35.88L241.379 49.704C240.899 50.408 240.371 50.968 239.795 51.384C239.251 51.8 238.723 52.12 238.211 52.344L238.163 52.536C238.579 52.76 239.011 53.192 239.459 53.832C239.907 54.44 240.275 55.064 240.563 55.704L246.851 69H237.107L230.099 51.96L241.091 35.88H251.171ZM232.163 35.88L230.819 45.336C230.691 46.424 230.451 47.528 230.099 48.648C229.747 49.768 229.251 50.872 228.611 51.96C228.899 52.92 229.075 53.96 229.139 55.08C229.203 56.168 229.171 57.176 229.043 58.104L227.507 69H218.435L223.091 35.88H232.163ZM233.315 48.792L232.499 54.792H226.835L227.651 48.792H233.315ZM263.381 35.88L258.725 69H249.701L254.357 35.88H263.381ZM278.003 35.88L274.547 59.64C274.483 60.376 274.579 60.92 274.835 61.272C275.123 61.624 275.667 61.8 276.467 61.8H287.651L287.507 68.616C285.331 68.872 282.899 69.016 280.211 69.048C277.555 69.112 274.915 69.144 272.291 69.144C270.755 69.144 269.427 68.84 268.307 68.232C267.219 67.592 266.403 66.712 265.859 65.592C265.315 64.44 265.155 63.112 265.379 61.608L268.979 35.88H278.003ZM303.971 35.88L300.515 59.64C300.451 60.376 300.547 60.92 300.803 61.272C301.091 61.624 301.635 61.8 302.435 61.8H313.619L313.475 68.616C311.299 68.872 308.867 69.016 306.179 69.048C303.523 69.112 300.883 69.144 298.259 69.144C296.723 69.144 295.395 68.84 294.275 68.232C293.187 67.592 292.371 66.712 291.827 65.592C291.283 64.44 291.123 63.112 291.347 61.608L294.947 35.88H303.971Z" fill="white"/>
</g>
<g filter="url(#filter2_di_0_1)">
<path fill-rule="evenodd" clip-rule="evenodd" d="M406.749 11.1247C399.323 5.01409 390.104 1.00317 380 0V15.1076C385.977 15.9625 391.466 18.3274 396.07 21.8034L406.749 11.1247ZM347.05 70.8233C343.622 66.283 341.275 60.8811 340.391 55H325.272C326.316 65.0071 330.311 74.1364 336.372 81.502L347.05 70.8233ZM343.462 88.5539L354.149 77.8669C358.707 81.2533 364.118 83.5573 370 84.3987V99.5062C359.992 98.5125 350.851 94.5676 343.462 88.5539ZM403.114 28.902L413.801 18.2149C419.864 25.6651 423.824 34.895 424.777 45H409.68C408.868 39.0222 406.548 33.5241 403.114 28.902ZM325.223 45C326.175 34.9088 330.125 25.6903 336.174 18.2455L346.863 28.9338C343.442 33.5493 341.13 39.0359 340.32 45H325.223ZM380 84.3987C385.869 83.5592 391.268 81.264 395.819 77.8905L406.508 88.5788C399.124 94.5784 389.995 98.5139 380 99.5062V84.3987ZM402.926 70.8548L413.603 81.5324C419.678 74.1615 423.683 65.0208 424.728 55H409.609C408.723 60.8947 406.367 66.3081 402.926 70.8548ZM343.221 11.1497L353.898 21.8273C358.509 18.3382 364.01 15.9644 370 15.1076V0C359.882 1.00453 350.652 5.02503 343.221 11.1497Z" fill="white"/>
</g>
<defs>
<filter id="filter0_di_0_1" x="346.236" y="33.291" width="57.8044" height="44.955" filterUnits="userSpaceOnUse" color-interpolation-filters="sRGB">
<feFlood flood-opacity="0" result="BackgroundImageFix"/>
<feColorMatrix in="SourceAlpha" type="matrix" values="0 0 0 0 0 0 0 0 0 0 0 0 0 0 0 0 0 0 127 0" result="hardAlpha"/>
<feOffset dy="10"/>
<feGaussianBlur stdDeviation="2"/>
<feComposite in2="hardAlpha" operator="out"/>
<feColorMatrix type="matrix" values="0 0 0 0 0 0 0 0 0 0 0 0 0 0 0 0 0 0 0.25 0"/>
<feBlend mode="normal" in2="BackgroundImageFix" result="effect1_dropShadow_0_1"/>
<feBlend mode="normal" in="SourceGraphic" in2="effect1_dropShadow_0_1" result="shape"/>
<feColorMatrix in="SourceAlpha" type="matrix" values="0 0 0 0 0 0 0 0 0 0 0 0 0 0 0 0 0 0 127 0" result="hardAlpha"/>
<feOffset dy="10"/>
<feGaussianBlur stdDeviation="2"/>
<feComposite in2="hardAlpha" operator="arithmetic" k2="-1" k3="1"/>
<feColorMatrix type="matrix" values="0 0 0 0 0 0 0 0 0 0 0 0 0 0 0 0 0 0 0.25 0"/>
<feBlend mode="normal" in2="shape" result="effect2_innerShadow_0_1"/>
</filter>
<filter id="filter1_di_0_1" x="0.764893" y="35.208" width="316.855" height="48.464" filterUnits="userSpaceOnUse" color-interpolation-filters="sRGB">
<feFlood flood-opacity="0" result="BackgroundImageFix"/>
<feColorMatrix in="SourceAlpha" type="matrix" values="0 0 0 0 0 0 0 0 0 0 0 0 0 0 0 0 0 0 127 0" result="hardAlpha"/>
<feOffset dy="10"/>
<feGaussianBlur stdDeviation="2"/>
<feComposite in2="hardAlpha" operator="out"/>
<feColorMatrix type="matrix" values="0 0 0 0 0 0 0 0 0 0 0 0 0 0 0 0 0 0 0.25 0"/>
<feBlend mode="normal" in2="BackgroundImageFix" result="effect1_dropShadow_0_1"/>
<feBlend mode="normal" in="SourceGraphic" in2="effect1_dropShadow_0_1" result="shape"/>
<feColorMatrix in="SourceAlpha" type="matrix" values="0 0 0 0 0 0 0 0 0 0 0 0 0 0 0 0 0 0 127 0" result="hardAlpha"/>
<feOffset dy="10"/>
<feGaussianBlur stdDeviation="2"/>
<feComposite in2="hardAlpha" operator="arithmetic" k2="-1" k3="1"/>
<feColorMatrix type="matrix" values="0 0 0 0 0 0 0 0 0 0 0 0 0 0 0 0 0 0 0.25 0"/>
<feBlend mode="normal" in2="shape" result="effect2_innerShadow_0_1"/>
</filter>
<filter id="filter2_di_0_1" x="321.223" y="0" width="107.554" height="113.506" filterUnits="userSpaceOnUse" color-interpolation-filters="sRGB">
<feFlood flood-opacity="0" result="BackgroundImageFix"/>
<feColorMatrix in="SourceAlpha" type="matrix" values="0 0 0 0 0 0 0 0 0 0 0 0 0 0 0 0 0 0 127 0" result="hardAlpha"/>
<feOffset dy="10"/>
<feGaussianBlur stdDeviation="2"/>
<feComposite in2="hardAlpha" operator="out"/>
<feColorMatrix type="matrix" values="0 0 0 0 0 0 0 0 0 0 0 0 0 0 0 0 0 0 0.25 0"/>
<feBlend mode="normal" in2="BackgroundImageFix" result="effect1_dropShadow_0_1"/>
<feBlend mode="normal" in="SourceGraphic" in2="effect1_dropShadow_0_1" result="shape"/>
<feColorMatrix in="SourceAlpha" type="matrix" values="0 0 0 0 0 0 0 0 0 0 0 0 0 0 0 0 0 0 127 0" result="hardAlpha"/>
<feOffset dy="10"/>
<feGaussianBlur stdDeviation="2"/>
<feComposite in2="hardAlpha" operator="arithmetic" k2="-1" k3="1"/>
<feColorMatrix type="matrix" values="0 0 0 0 0 0 0 0 0 0 0 0 0 0 0 0 0 0 0.25 0"/>
<feBlend mode="normal" in2="shape" result="effect2_innerShadow_0_1"/>
</filter>
</defs>
</svg>
